<svg width="264" height="32" viewBox="0 0 264 40" fill="none" xmlns="http://www.w3.org/2000/svg">
<mask id="mask0_9256_38822" style="mask-type:luminance" maskUnits="userSpaceOnUse" x="0" y="0" width="36" height="36">
<path fill-rule="evenodd" clip-rule="evenodd" d="M0 0H35.9504V35.8604H0V0Z" fill="white"/>
</mask>
<g mask="url(#mask0_9256_38822)">
<path fill-rule="evenodd" clip-rule="evenodd" d="M35.9504 17.9302C35.9504 27.8328 27.9026 35.8604 17.9751 35.8604C8.04781 35.8604 0 27.8328 0 17.9302C0 8.02764 8.04781 0 17.9751 0C27.9026 0 35.9504 8.02764 35.9504 17.9302" fill="#E95947"/>
</g>
<mask id="mask1_9256_38822" style="mask-type:luminance" maskUnits="userSpaceOnUse" x="0" y="0" width="36" height="36">
<path fill-rule="evenodd" clip-rule="evenodd" d="M17.9751 0C8.04772 0 0 8.02764 0 17.9302V17.9302C0 27.8328 8.04772 35.8603 17.9751 35.8603V35.8603C27.9025 35.8603 35.9504 27.8328 35.9504 17.9302V17.9302" fill="white"/>
</mask>
<g mask="url(#mask1_9256_38822)">
<path fill-rule="evenodd" clip-rule="evenodd" d="M28.2297 8.1709L44.2603 32.2893L29.6065 42.7082L9.56165 24.6277" fill="#DC473C"/>
</g>
<path fill-rule="evenodd" clip-rule="evenodd" d="M24.1225 13.6073C24.054 14.3869 23.3704 15.0184 22.5946 15.0184C21.8197 15.0184 21.2453 14.3869 21.3129 13.6073C21.3813 12.8277 22.065 12.1955 22.8416 12.1955C23.6157 12.1955 24.1901 12.8277 24.1225 13.6073V13.6073ZM28.4452 8.37109H23.2653H18.9678L19.098 8.43394C18.6725 9.32179 17.6039 11.6569 16.8689 14.1619C16.1299 16.6808 15.9443 18.5979 16.3172 19.8596C16.4891 20.4402 16.7573 20.7578 17.1862 20.8889C17.3359 20.9346 17.512 20.9579 17.7097 20.9579C19.1075 20.9579 20.9922 19.8708 21.6004 19.4519C21.6501 19.4166 21.9249 19.2339 22.2802 19.2339C22.5707 19.2339 22.8344 19.3573 23.0227 19.5812C23.2598 19.8623 23.2796 20.1473 23.2546 20.3368C23.195 20.7862 22.836 21.0709 22.7274 21.1474C22.444 21.3415 19.9067 23.0336 17.6364 23.0336C17.2387 23.0336 16.8622 22.9805 16.5175 22.8757C15.4476 22.5513 14.6923 21.7357 14.333 20.517C13.3117 17.062 15.4766 11.4505 16.8803 8.37109H13.6484H8.46934L7.57135 18.6864C7.33754 21.3668 8.15722 23.8875 9.87902 25.7841C11.6007 27.6799 14.0175 28.7241 16.6854 28.7241H16.6862C18.3518 28.7241 19.9912 28.3164 21.4873 27.5489L25.9583 29.6634L25.2193 24.469C26.5499 22.7876 27.3639 20.787 27.5464 18.6864L28.4452 8.37109Z" fill="white"/>
<path fill-rule="evenodd" clip-rule="evenodd" d="M24.1225 13.6153C24.054 14.3962 23.3692 15.0284 22.5923 15.0284C21.8162 15.0284 21.2409 14.3962 21.3086 13.6153C21.3772 12.8345 22.0619 12.2013 22.8396 12.2013C23.6148 12.2013 24.1902 12.8345 24.1225 13.6153" fill="#E95947"/>
<path fill-rule="evenodd" clip-rule="evenodd" d="M23.0209 19.5983C22.8325 19.3741 22.5684 19.2507 22.2773 19.2507C21.9127 19.2507 21.6262 19.4479 21.5968 19.4689C20.9875 19.8883 19.0995 20.9771 17.7002 20.9771C17.5018 20.9771 17.3254 20.9539 17.1758 20.908C16.746 20.7767 16.4774 20.4585 16.3051 19.877C15.9318 18.6133 16.1176 16.6934 16.8579 14.1706C17.5939 11.6618 18.7204 9.23062 19.1465 8.34157L18.8299 8.30811C18.821 8.32674 18.8098 8.35038 18.7999 8.37114H17.0284H17.0283L16.8972 8.31052C15.4922 11.3811 13.2889 17.0525 14.3184 20.5353C14.6782 21.7556 15.4346 22.5724 16.506 22.8976C16.8516 23.0024 17.2285 23.0555 17.6267 23.0555C19.9002 23.0555 22.4413 21.361 22.7253 21.1664C22.834 21.0896 23.1935 20.8038 23.253 20.355C23.2781 20.1651 23.2581 19.8795 23.0209 19.5983" fill="#E95947"/>
<path fill-rule="evenodd" clip-rule="evenodd" d="M53.9064 21.6674C53.9064 23.8554 52.2474 25.6355 50.2082 25.6355C48.1689 25.6355 46.5099 23.8554 46.5099 21.6674V13.6164H46.505V12.5568C46.505 12.3107 46.3065 12.1112 46.0616 12.1112H42.6143C42.3694 12.1112 42.1709 12.3107 42.1709 12.5568V13.6164V17.3854V22.6019C42.1709 25.1755 43.2474 27.4444 44.8615 28.5408C46.1177 29.394 47.6206 29.9475 49.8369 29.9475H50.5794C52.7958 29.9475 54.4517 29.2627 55.7079 28.4092C57.322 27.313 58.2455 25.1755 58.2455 22.6019V17.3854V12.5568V12.5455H58.2443C58.2382 12.3047 58.0431 12.1112 57.802 12.1112H54.3547C54.1098 12.1112 53.9113 12.3107 53.9113 12.5568V13.6164" fill="#4A4A50"/>
<path fill-rule="evenodd" clip-rule="evenodd" d="M146.985 27.9791V20.3914C146.985 18.2034 148.644 16.4235 150.683 16.4235C152.723 16.4235 154.382 18.2034 154.382 20.3914V28.4815H154.386V29.502C154.386 29.7481 154.585 29.9475 154.83 29.9475H158.277C158.522 29.9475 158.721 29.7481 158.721 29.502V28.4815V24.6735V19.4569C158.721 16.8833 157.644 14.6143 156.03 13.5181C154.774 12.6648 153.271 12.1112 151.055 12.1112H150.312C148.096 12.1112 146.44 12.7962 145.184 13.6495C143.569 14.7458 142.646 16.8833 142.646 19.4569V24.6735V29.502V29.5134H142.647C142.653 29.7541 142.848 29.9475 143.09 29.9475H146.537C146.782 29.9475 146.98 29.7481 146.98 29.502V28.4815" fill="#4A4A50"/>
<path fill-rule="evenodd" clip-rule="evenodd" d="M121.305 27.9791V20.3914C121.305 18.2034 122.964 16.4235 125.004 16.4235C127.043 16.4235 128.702 18.2034 128.702 20.3914V28.4815H128.707V29.502C128.707 29.7481 128.905 29.9475 129.15 29.9475H132.598C132.842 29.9475 133.041 29.7481 133.041 29.502V28.4815V24.6735V19.4569C133.041 16.8833 131.965 14.6143 130.35 13.5181C129.094 12.6648 127.591 12.1112 125.375 12.1112H124.633C122.416 12.1112 120.76 12.7962 119.504 13.6495C117.89 14.7458 116.967 16.8833 116.967 19.4569V24.6735V29.502V29.5134H116.968C116.974 29.7541 117.169 29.9475 117.41 29.9475H120.857C121.102 29.9475 121.301 29.7481 121.301 29.502V28.4815" fill="#4A4A50"/>
<path fill-rule="evenodd" clip-rule="evenodd" d="M137.92 10.9337C139.233 10.9379 140.332 9.86459 140.336 8.47358C140.341 7.12763 139.251 6.00247 137.938 5.9983C136.624 5.99413 135.526 7.11233 135.521 8.45838C135.516 9.84929 136.607 10.9296 137.92 10.9337" fill="#4A4A50"/>
<path fill-rule="evenodd" clip-rule="evenodd" d="M64.72 6.15259H61.3947C61.1204 6.15259 60.8979 6.3491 60.8979 6.59151V7.51727V9.58487V26.1591V28.3773V29.303C60.8979 29.5454 61.1204 29.742 61.3947 29.742H64.72C64.9945 29.742 65.2169 29.5454 65.2169 29.303V28.3773V26.1591V9.58487V7.51727V6.59151C65.2169 6.3491 64.9945 6.15259 64.72 6.15259Z" fill="#4A4A50"/>
<path fill-rule="evenodd" clip-rule="evenodd" d="M95.2906 25.8215C92.8815 25.8143 90.9078 23.6828 90.9178 21.0725C90.9277 18.462 92.9175 16.3423 95.3266 16.3494C97.7747 16.3568 99.7483 18.4882 99.7384 21.0986C99.7284 23.709 97.7387 25.8287 95.2906 25.8215M103.555 12.2719L100.264 12.2622C99.9921 12.2613 99.7712 12.4552 99.7702 12.6951L99.7672 13.4911C99.4572 13.304 99.1468 13.1539 98.7975 13.0036C97.7115 12.5156 96.5467 12.2511 95.3422 12.2476C94.1764 12.2441 93.0097 12.5017 91.9199 12.9832C90.8691 13.4276 89.934 14.0587 89.1538 14.8769C87.5542 16.5502 86.6522 18.7477 86.6433 21.0598C86.6344 23.4092 87.5198 25.6119 89.1068 27.2574C89.8808 28.08 90.8109 28.7542 91.8583 29.2047C92.9444 29.6928 94.1092 29.9199 95.275 29.9233C96.4796 29.9269 97.6462 29.7066 98.7359 29.2251C99.0863 29.0769 99.3979 28.8914 99.7095 28.7058L99.7065 29.5021C99.7055 29.742 99.925 29.9371 100.196 29.9379L103.487 29.9476C103.759 29.9484 103.98 29.7547 103.981 29.5148L103.984 28.5986L103.993 26.4033L104.033 15.8191L104.041 13.6239L104.045 12.7077C104.046 12.4678 103.826 12.2727 103.555 12.2719" fill="#4A4A50"/>
<path fill-rule="evenodd" clip-rule="evenodd" d="M169.663 25.7982C167.189 25.7909 165.195 23.6372 165.205 20.9995C165.215 18.3618 167.226 16.22 169.699 16.2273C172.134 16.2345 174.128 18.3882 174.118 21.026C174.108 23.6635 172.097 25.8053 169.663 25.7982M177.974 12.1211L174.649 12.1113C174.374 12.1104 174.151 12.3063 174.15 12.5487L174.147 13.339C173.834 13.1497 173.52 12.9981 173.167 12.8463C172.07 12.3532 170.893 12.086 169.715 12.0824C168.498 12.0789 167.319 12.3392 166.218 12.8258C165.156 13.2747 164.25 13.9125 163.423 14.7391C161.806 16.43 160.895 18.6505 160.886 20.9867C160.877 23.3606 161.772 25.5864 163.375 27.249C164.196 28.0804 165.097 28.7614 166.155 29.2168C167.253 29.7098 168.43 29.9393 169.647 29.9429C170.825 29.9464 172.004 29.724 173.105 29.2373C173.282 29.1624 173.449 29.0782 173.612 28.9891C173.819 28.8753 174.088 29.0046 174.087 29.2206L174.084 29.956C174.074 32.5938 172.063 34.7355 169.629 34.7283C168.107 34.7238 166.716 33.8931 165.914 32.5687C165.766 32.3228 165.422 32.2267 165.139 32.3506L162.248 33.616C161.961 33.7416 161.839 34.0486 161.978 34.3033C162.671 35.5726 163.644 36.6497 164.868 37.4272C166.278 38.3734 167.925 38.8682 169.613 38.8732C170.791 38.8768 171.97 38.6165 173.071 38.1675C174.133 37.6808 175.078 37.043 175.866 36.2165C177.483 34.5255 178.394 32.3051 178.403 29.9689L178.457 15.7054L178.466 13.4731L178.469 12.5616C178.47 12.3191 178.248 12.1219 177.974 12.1211" fill="#4A4A50"/>
<path fill-rule="evenodd" clip-rule="evenodd" d="M139.584 12.0941L136.259 12.0999C135.984 12.1003 135.762 12.2972 135.762 12.5397L135.763 13.4513L135.765 15.6836L135.774 26.3642L135.776 28.5825L135.777 29.5082C135.777 29.7507 135.999 29.9468 136.274 29.9463L139.599 29.9405C139.873 29.9401 140.096 29.7432 140.096 29.5007L140.095 28.575L140.093 26.3568L140.084 15.6761L140.082 13.4438L140.081 12.5323C140.081 12.2897 139.858 12.0937 139.584 12.0941" fill="#4A4A50"/>
<path fill-rule="evenodd" clip-rule="evenodd" d="M72.1606 19.3729C72.1606 17.2104 73.9941 15.7979 76.2557 15.7979C78.5173 15.7979 80.3508 17.2104 80.3508 19.3729H72.1606ZM76.7237 12.0825C74.2671 12.0825 71.9273 13.0179 70.2115 14.702C68.4566 16.3487 67.4818 18.5941 67.4818 20.9517C67.4818 23.3095 68.4566 25.5548 70.2115 27.2389C71.9273 28.8854 74.2671 29.8209 76.7237 29.8209C79.2587 29.8209 81.6929 28.8205 83.4326 27.0592C83.6573 26.8318 83.6275 26.4852 83.3744 26.2823L80.9884 24.3695C80.7326 24.1644 80.3412 24.1804 80.1017 24.4001C79.1972 25.2295 78.0042 25.7046 76.7237 25.7046C74.5009 25.7046 72.5902 24.4633 72.0051 22.5172H80.7402H82.8849H84.286C84.6968 22.5172 85.0296 22.2231 85.0296 21.8602V20.2781C85.0296 15.6002 81.4812 12.0825 76.7237 12.0825V12.0825Z" fill="#4A4A50"/>
<path fill-rule="evenodd" clip-rule="evenodd" d="M115.475 12.3937H115.134C113.741 12.3937 112.561 12.6661 111.557 13.3657L111.556 12.6979C111.557 12.4554 111.335 12.2582 111.061 12.2574H111.046C111.046 12.2574 111.046 12.2573 111.046 12.2573L109.556 12.2529L107.736 12.2476C107.735 12.2476 107.735 12.2477 107.735 12.2477L107.72 12.2476C107.446 12.2467 107.223 12.4409 107.222 12.6813L107.218 13.5848L107.21 15.7977L107.169 26.385L107.161 28.5837L107.157 29.5014C107.156 29.7415 107.378 29.9371 107.653 29.938L110.978 29.9476C111.252 29.9484 111.475 29.7543 111.476 29.514L111.48 28.5965L111.48 28.5652L111.524 21.49C111.524 21.1442 111.558 20.6953 111.628 20.1438C111.697 19.5924 111.845 19.0628 112.073 18.5545C112.301 18.0467 112.638 17.6088 113.084 17.2409C113.529 16.8733 114.138 16.6894 114.911 16.6894H115.149H115.49C115.646 16.6894 115.773 16.5623 115.773 16.4056L115.758 12.6775C115.758 12.5207 115.631 12.3937 115.475 12.3937" fill="#4A4A50"/>
<path d="M194.356 29.7727H186.469V6.5H194.515C196.825 6.5 198.81 6.96591 200.469 7.89773C202.136 8.82197 203.416 10.1515 204.31 11.8864C205.204 13.6212 205.651 15.697 205.651 18.1136C205.651 20.5379 205.2 22.6212 204.299 24.3636C203.405 26.1061 202.113 27.4432 200.424 28.375C198.742 29.3068 196.719 29.7727 194.356 29.7727ZM190.685 26.125H194.151C195.772 26.125 197.124 25.8295 198.208 25.2386C199.291 24.6402 200.106 23.75 200.651 22.5682C201.196 21.3788 201.469 19.8939 201.469 18.1136C201.469 16.3333 201.196 14.8561 200.651 13.6818C200.106 12.5 199.299 11.6174 198.231 11.0341C197.17 10.4432 195.852 10.1477 194.276 10.1477H190.685V26.125Z" fill="#175CD3"/>
<path d="M216.448 30.1136C214.744 30.1136 213.267 29.7386 212.017 28.9886C210.767 28.2386 209.797 27.1894 209.108 25.8409C208.426 24.4924 208.085 22.9167 208.085 21.1136C208.085 19.3106 208.426 17.7311 209.108 16.375C209.797 15.0189 210.767 13.9659 212.017 13.2159C213.267 12.4659 214.744 12.0909 216.448 12.0909C218.153 12.0909 219.63 12.4659 220.88 13.2159C222.13 13.9659 223.096 15.0189 223.778 16.375C224.467 17.7311 224.812 19.3106 224.812 21.1136C224.812 22.9167 224.467 24.4924 223.778 25.8409C223.096 27.1894 222.13 28.2386 220.88 28.9886C219.63 29.7386 218.153 30.1136 216.448 30.1136ZM216.471 26.8182C217.395 26.8182 218.168 26.5644 218.789 26.0568C219.411 25.5417 219.873 24.8523 220.176 23.9886C220.486 23.125 220.642 22.1629 220.642 21.1023C220.642 20.0341 220.486 19.0682 220.176 18.2045C219.873 17.3333 219.411 16.6402 218.789 16.125C218.168 15.6098 217.395 15.3523 216.471 15.3523C215.524 15.3523 214.736 15.6098 214.108 16.125C213.486 16.6402 213.02 17.3333 212.71 18.2045C212.407 19.0682 212.255 20.0341 212.255 21.1023C212.255 22.1629 212.407 23.125 212.71 23.9886C213.02 24.8523 213.486 25.5417 214.108 26.0568C214.736 26.5644 215.524 26.8182 216.471 26.8182Z" fill="#175CD3"/>
<path d="M235.277 30.1136C233.535 30.1136 232.039 29.7311 230.789 28.9659C229.546 28.2008 228.588 27.1439 227.914 25.7955C227.247 24.4394 226.914 22.8788 226.914 21.1136C226.914 19.3409 227.255 17.7765 227.936 16.4205C228.618 15.0568 229.58 13.9962 230.823 13.2386C232.073 12.4735 233.55 12.0909 235.255 12.0909C236.671 12.0909 237.925 12.3523 239.016 12.875C240.114 13.3902 240.989 14.1212 241.641 15.0682C242.292 16.0076 242.664 17.1061 242.755 18.3636H238.823C238.664 17.5227 238.285 16.822 237.686 16.2614C237.095 15.6932 236.304 15.4091 235.311 15.4091C234.47 15.4091 233.732 15.6364 233.095 16.0909C232.459 16.5379 231.963 17.1818 231.607 18.0227C231.258 18.8636 231.084 19.8712 231.084 21.0455C231.084 22.2348 231.258 23.2576 231.607 24.1136C231.955 24.9621 232.444 25.6174 233.073 26.0795C233.709 26.5341 234.455 26.7614 235.311 26.7614C235.917 26.7614 236.459 26.6477 236.936 26.4205C237.421 26.1856 237.826 25.8485 238.152 25.4091C238.478 24.9697 238.701 24.4356 238.823 23.8068H242.755C242.656 25.0417 242.292 26.1364 241.664 27.0909C241.035 28.0379 240.179 28.7803 239.095 29.3182C238.012 29.8485 236.739 30.1136 235.277 30.1136Z" fill="#175CD3"/>
<path d="M259.288 16.9318L255.538 17.3409C255.432 16.9621 255.246 16.6061 254.981 16.2727C254.723 15.9394 254.375 15.6705 253.936 15.4659C253.496 15.2614 252.958 15.1591 252.322 15.1591C251.466 15.1591 250.746 15.3447 250.163 15.7159C249.587 16.0871 249.303 16.5682 249.311 17.1591C249.303 17.6667 249.489 18.0795 249.867 18.3977C250.254 18.7159 250.89 18.9773 251.776 19.1818L254.754 19.8182C256.405 20.1742 257.633 20.7386 258.436 21.5114C259.246 22.2841 259.655 23.2955 259.663 24.5455C259.655 25.6439 259.333 26.6136 258.697 27.4545C258.068 28.2879 257.193 28.9394 256.072 29.4091C254.951 29.8788 253.663 30.1136 252.208 30.1136C250.072 30.1136 248.352 29.6667 247.049 28.7727C245.746 27.8712 244.97 26.6174 244.72 25.0114L248.731 24.625C248.913 25.4129 249.299 26.0076 249.89 26.4091C250.481 26.8106 251.25 27.0114 252.197 27.0114C253.174 27.0114 253.958 26.8106 254.549 26.4091C255.148 26.0076 255.447 25.5114 255.447 24.9205C255.447 24.4205 255.254 24.0076 254.867 23.6818C254.489 23.3561 253.898 23.1061 253.095 22.9318L250.117 22.3068C248.443 21.9583 247.204 21.3712 246.401 20.5455C245.598 19.7121 245.201 18.6591 245.208 17.3864C245.201 16.3106 245.492 15.3788 246.083 14.5909C246.682 13.7955 247.511 13.1818 248.572 12.75C249.64 12.3106 250.871 12.0909 252.265 12.0909C254.311 12.0909 255.92 12.5265 257.095 13.3977C258.276 14.2689 259.008 15.447 259.288 16.9318Z" fill="#175CD3"/>
</svg>
